<svg version="1.1" xmlns="http://www.w3.org/2000/svg" viewBox="0 0 2048 2048" width="1000" height="1000" preserveAspectRatio="none" display="block"><defs><linearGradient id="a" gradientUnits="userSpaceOnUse" x1="1518.36" y1="1636.41" x2="1869" y2="1318.59"><stop class="stop0" offset="0" stop-opacity="1" stop-color="rgb(4,53,107)" data-c-stop-color="04356b" data-o-stop-color="1"/><stop class="stop1" offset="1" stop-opacity="1" stop-color="rgb(60,127,189)" data-c-stop-color="3c7fbd" data-o-stop-color="1"/></linearGradient></defs><path fill="rgb(252,253,253)" d="M 0 0 L 2048 0 L 2048 2048 L 0 2048 L 0 0 z" data-c-fill="fcfdfd"/><path fill="rgb(19,60,107)" d="M 488.788 1562.96 C 461.751 1551.75 434.221 1541.58 407.18 1530.17 C 380.852 1519.07 366.492 1505.37 365.616 1474.76 C 365.071 1455.69 365.42 1436.59 365.441 1417.5 L 365.545 1317.28 L 365.639 1057.27 L 365.159 742.392 C 365.236 699.156 364.987 655.229 365.276 612.457 C 366.491 566.654 392.471 566.101 427.207 581.575 C 494.358 611.489 564.682 636.562 631.426 667.068 C 628.948 678.372 627.873 687.039 630.506 698.525 C 636.645 725.304 661.877 745.348 689.784 737.886 L 693.807 734.123 C 710.326 753.525 736.499 754.186 753.701 735.182 C 756.595 735.551 758.814 735.315 760.82 736.796 C 767.339 738.933 775.628 738.007 782.081 735.912 C 786.011 737.694 795.394 742.247 799.047 743.441 C 827.662 755.055 856.648 766.721 885.086 778.893 C 892.94 782.255 903.752 791.726 911.843 795.138 C 942.427 808.032 978.451 807.905 1010.65 802.055 C 1017.16 800.874 1027.36 796.071 1030.93 795.449 C 1056.49 776.995 1069.18 772.869 1097.94 760.036 C 1115.86 751.954 1133.84 743.997 1151.87 736.165 C 1160.24 738.078 1166.63 740.282 1174.93 737.765 C 1176.08 736.415 1177.91 735.25 1179.38 734.155 C 1187.95 743.244 1197.66 748.766 1210.52 748.889 C 1221.11 748.948 1231.26 744.631 1238.57 736.958 C 1239.12 736.381 1239.66 735.792 1240.19 735.193 C 1241.5 735.634 1243.74 736.245 1244.78 736.962 C 1272.13 745.226 1297 726.752 1304.19 700.479 C 1307.48 688.489 1306.48 676.852 1303.37 664.984 C 1363.02 636.621 1424.66 612.569 1484.78 585.214 C 1493.06 581.448 1501.48 578.005 1510.16 575.358 C 1535.15 566.769 1554.38 583.611 1553.89 609.088 C 1554.15 655.935 1553.92 702.76 1554 749.602 L 1553.98 1063.36 L 1553.91 1326.52 C 1553.92 1370.63 1555.41 1425.08 1553.64 1468.53 C 1553.32 1477.84 1551.5 1487.03 1548.26 1495.76 L 1547.95 1496.54 C 1529.11 1530.16 1505.22 1529.08 1472.95 1544.51 C 1468.06 1546.85 1459.84 1549.7 1455.56 1552.51 C 1444.92 1556.89 1385.21 1580.1 1381.29 1587.21 C 1370.26 1586.5 1294.87 1621.03 1279.91 1627.37 L 1105.5 1701.16 C 1087.53 1708.86 1053.26 1724.82 1036.12 1730.4 C 1010.63 1744.45 953.338 1742.62 925.456 1736.72 C 909.783 1733.4 887.143 1722.67 871.653 1716.25 C 846.952 1706.03 822.188 1695.96 797.362 1686.05 C 694.726 1644.47 591.867 1603.44 488.788 1562.96 z" data-c-fill="133c6b"/><path fill="rgb(9,44,85)" d="M 1303.37 664.984 C 1363.02 636.621 1424.66 612.569 1484.78 585.214 C 1493.06 581.448 1501.48 578.005 1510.16 575.358 C 1535.15 566.769 1554.38 583.611 1553.89 609.088 C 1554.15 655.935 1553.92 702.76 1554 749.602 L 1553.98 1063.36 L 1553.91 1326.52 C 1553.92 1370.63 1555.41 1425.08 1553.64 1468.53 C 1553.32 1477.84 1551.5 1487.03 1548.26 1495.76 L 1547.95 1496.54 C 1529.11 1530.16 1505.22 1529.08 1472.95 1544.51 C 1468.06 1546.85 1459.84 1549.7 1455.56 1552.51 C 1444.92 1556.89 1385.21 1580.1 1381.29 1587.21 C 1370.26 1586.5 1294.87 1621.03 1279.91 1627.37 L 1105.5 1701.16 C 1087.53 1708.86 1053.26 1724.82 1036.12 1730.4 C 1036.07 1729.86 1036.03 1729.31 1035.98 1728.77 C 1038.33 1727.89 1039.25 1727.61 1041.4 1726.35 C 1040.75 1698.69 1042.11 1676.9 1042.48 1649.69 C 1042.83 1611.99 1042.94 1574.29 1042.79 1536.59 L 1042.61 1061.5 C 1042.52 971.235 1043.55 881.579 1041.45 791.342 L 1040.48 791.922 L 1038.94 792.817 C 1035.48 794.869 1035.04 795.739 1030.93 795.449 C 1056.49 776.995 1069.18 772.869 1097.94 760.036 C 1115.86 751.954 1133.84 743.997 1151.87 736.165 C 1160.24 738.078 1166.63 740.282 1174.93 737.765 C 1176.08 736.415 1177.91 735.25 1179.38 734.155 C 1187.95 743.244 1197.66 748.766 1210.52 748.889 C 1221.11 748.948 1231.26 744.631 1238.57 736.958 C 1239.12 736.381 1239.66 735.792 1240.19 735.193 C 1241.5 735.634 1243.74 736.245 1244.78 736.962 C 1272.13 745.226 1297 726.752 1304.19 700.479 C 1307.48 688.489 1306.48 676.852 1303.37 664.984 z" data-c-fill="092c55"/><path fill="#3775b0" d="M 1048.21 409.508 C 1077.55 381.507 1112.59 353.754 1146.14 331.118 C 1159.77 321.919 1186.92 303.535 1203.2 307.717 C 1210.54 309.191 1219.12 316.583 1222.22 323.474 C 1247.62 379.893 1238.9 460.346 1224.14 517.985 C 1239.39 542.213 1248.08 561.95 1254.42 590.214 C 1250.07 592.216 1229.4 601.191 1227.37 603.571 L 1227.21 604.504 C 1181.85 599.591 1147.76 609.573 1122.68 649.272 C 1096.8 644.023 1047.32 641.869 1030.49 618.991 C 1020.58 605.52 1026.05 585.018 1027.41 569.456 C 1019.88 562.46 1010.81 555.558 1004.14 548.316 C 986.228 528.871 976.104 491.241 972.147 465.134 C 963.067 495.607 959.5 523.973 937.109 548.765 C 929.738 556.926 920.22 564.03 913.841 571.16 C 917.244 585.861 921.119 603.207 912.079 616.366 C 894.792 641.531 842.055 645.066 814.875 650.613 C 802.413 627.98 785.005 614.504 760.136 607.439 C 741.224 602.23 721.336 601.651 702.153 605.751 C 699.302 603.898 688.792 599.17 684.438 596.774 C 691.087 568.723 702.675 542.984 717.768 518.551 C 704.421 483.541 685.905 311.394 744.103 306.974 C 776.609 304.505 868.411 384.835 895.385 409.437 C 939.442 400.824 1004.12 400.023 1048.21 409.508 z" data-c-fill="3574af" fill-opacity="1"/><path fill="rgb(252,253,253)" d="M743.778 335.96C771.617 334.428 831.149 400.013 849.853 423.04 824.942 433.742 813.53 437.981 789.772 453.332 770.182 467.065 755.721 479.715 738.87 496.317 728.365 459.475 724.676 421.025 727.983 382.857 729.268 366.781 730.951 346.949 743.778 335.96zM1189.7 335.983C1197.31 335.685 1203.54 339.33 1206.26 346.458 1217.11 374.848 1216 420.489 1211.89 450.148 1209.91 465.201 1206.56 480.042 1201.89 494.488 1186.53 478.767 1174.85 468.737 1157.67 455.374 1137.6 441.625 1115.89 430.453 1093.04 422.123 1113.05 397.39 1161.01 348.864 1189.7 335.983z" data-c-fill="fcfdfd"/><path fill="rgb(9,44,85)" d="M861.396 558.347C905.082 555.252 915.765 621.711 870.997 632.877 863.206 632.583 858.104 632.548 850.849 628.767 842.004 624.115 835.423 616.077 832.606 606.489 829.597 596.232 831.023 585.184 836.539 576.028 842.512 566.041 850.438 561.118 861.396 558.347zM1074.25 558.343C1081.37 558.735 1085.41 559.297 1091.87 562.712 1100.63 567.412 1107.05 575.537 1109.59 585.147 1112.26 594.842 1110.85 605.205 1105.7 613.838 1099.36 624.682 1090.83 630.009 1078.99 632.921 1030.29 634.109 1031.51 566.224 1074.25 558.343z" data-c-fill="092c55"/><path fill="url(#a)" d="M 1767.61 1349.18 C 1802.83 1352.28 1808.23 1388.59 1842.98 1360.45 C 1857.4 1348.77 1865.82 1334.2 1874.24 1317.85 C 1882.57 1420.03 1840.24 1505.9 1755.41 1563.86 C 1746.91 1569.67 1734.87 1574.87 1727.19 1580.3 C 1710.83 1599.78 1622.2 1612.32 1596.56 1618.63 C 1539.19 1632.75 1480.59 1639.15 1422.68 1650.93 C 1399 1655.75 1371.7 1656.31 1348.01 1660.96 C 1319.97 1666.46 1292.16 1673.57 1263.91 1678.23 C 1243.29 1681.88 1209.75 1677.82 1191.24 1683.81 C 1168.04 1691.32 1170.15 1691.68 1145.21 1690.09 L 1144.31 1687.27 C 1139.52 1688.14 1112.76 1700.62 1105.98 1703.38 C 1080.24 1713.85 1049.16 1729.58 1022.97 1737.43 C 995.361 1745.71 954.238 1744.64 926.196 1739.08 C 908.888 1735.64 887.114 1724.85 869.965 1717.79 C 843.15 1706.73 816.256 1695.86 789.283 1685.19 L 586.238 1603.74 C 556.204 1591.72 525.99 1580 495.972 1567.95 C 492.337 1566.49 490.888 1566.13 488.788 1562.96 C 591.867 1603.44 694.726 1644.47 797.362 1686.05 C 822.188 1695.96 846.952 1706.03 871.653 1716.25 C 887.143 1722.67 909.783 1733.4 925.456 1736.72 C 953.338 1742.62 1010.63 1744.45 1036.12 1730.4 C 1053.26 1724.82 1087.53 1708.86 1105.5 1701.16 L 1279.91 1627.37 C 1294.87 1621.03 1370.26 1586.5 1381.29 1587.21 C 1385.21 1580.1 1444.92 1556.89 1455.56 1552.51 C 1459.84 1549.7 1468.06 1546.85 1472.95 1544.51 C 1505.22 1529.08 1529.11 1530.16 1547.95 1496.54 C 1557.81 1496.86 1567.65 1497.15 1577.51 1497.27 C 1672.03 1498.43 1756.77 1449.77 1767.61 1349.18 z"/><path fill="rgb(189,208,224)" d="M 1455.56 1552.51 C 1453.96 1555.13 1451.74 1555.75 1449.05 1557.05 L 1448.85 1558.26 C 1451.19 1559.86 1450.58 1558.78 1451.2 1561.25 C 1456.22 1562.6 1466.99 1562.54 1472.3 1562.15 C 1475.97 1564.41 1478.42 1565.83 1482.3 1567.69 C 1482.22 1567.52 1506.64 1600.75 1507.24 1601.39 C 1508.85 1603.1 1510.84 1604.4 1513.06 1605.18 C 1522.65 1608.55 1535.32 1601.72 1544.85 1600.9 C 1551.24 1600.34 1567.93 1607.42 1574.63 1609.78 C 1576.15 1610.32 1577.69 1612.93 1578.44 1614.27 C 1635.8 1612.54 1674.7 1603.7 1727.19 1580.3 C 1710.83 1599.78 1622.2 1612.32 1596.56 1618.63 C 1539.19 1632.75 1480.59 1639.15 1422.68 1650.93 C 1399 1655.75 1371.7 1656.31 1348.01 1660.96 C 1319.97 1666.46 1292.16 1673.57 1263.91 1678.23 C 1243.29 1681.88 1209.75 1677.82 1191.24 1683.81 C 1168.04 1691.32 1170.15 1691.68 1145.21 1690.09 L 1144.31 1687.27 C 1139.52 1688.14 1112.76 1700.62 1105.98 1703.38 C 1080.24 1713.85 1049.16 1729.58 1022.97 1737.43 C 995.361 1745.71 954.238 1744.64 926.196 1739.08 C 908.888 1735.64 887.114 1724.85 869.965 1717.79 C 843.15 1706.73 816.256 1695.86 789.283 1685.19 L 586.238 1603.74 C 556.204 1591.72 525.99 1580 495.972 1567.95 C 492.337 1566.49 490.888 1566.13 488.788 1562.96 C 591.867 1603.44 694.726 1644.47 797.362 1686.05 C 822.188 1695.96 846.952 1706.03 871.653 1716.25 C 887.143 1722.67 909.783 1733.4 925.456 1736.72 C 953.338 1742.62 1010.63 1744.45 1036.12 1730.4 C 1053.26 1724.82 1087.53 1708.86 1105.5 1701.16 L 1279.91 1627.37 C 1294.87 1621.03 1370.26 1586.5 1381.29 1587.21 C 1385.21 1580.1 1444.92 1556.89 1455.56 1552.51 z" data-c-fill="bdd0e0"/><path fill="rgb(19,60,107)" d="M 1455.56 1552.51 C 1453.96 1555.13 1451.74 1555.75 1449.05 1557.05 L 1448.85 1558.26 C 1451.19 1559.86 1450.58 1558.78 1451.2 1561.25 C 1456.22 1562.6 1466.99 1562.54 1472.3 1562.15 C 1475.97 1564.41 1478.42 1565.83 1482.3 1567.69 C 1482.22 1567.52 1506.64 1600.75 1507.24 1601.39 C 1508.85 1603.1 1510.84 1604.4 1513.06 1605.18 C 1522.65 1608.55 1535.32 1601.72 1544.85 1600.9 C 1551.24 1600.34 1567.93 1607.42 1574.63 1609.78 C 1576.15 1610.32 1577.69 1612.93 1578.44 1614.27 C 1522.56 1615.57 1469.3 1606.2 1414.85 1594.76 C 1409.02 1593.54 1385.54 1589.27 1381.29 1587.21 C 1385.21 1580.1 1444.92 1556.89 1455.56 1552.51 z" data-c-fill="133c6b"/><path fill="#3775b0" d="M 1702.12 1158.41 C 1750.28 1153.84 1802.35 1178.01 1832.37 1215.1 C 1837.86 1221.87 1842.75 1228.72 1847.72 1235.85 C 1805.28 1231.42 1775.46 1257.11 1761.92 1295.76 L 1759.41 1303.29 C 1744.88 1282.35 1726.22 1270.72 1700.46 1274.56 C 1681.61 1277.71 1662.84 1278.36 1646.94 1265.89 C 1622.94 1247.06 1619.2 1212.14 1639.14 1188.78 C 1656.54 1168.4 1676.64 1160.87 1702.12 1158.41 z" data-c-fill="3574af" fill-opacity="1"/><path fill="rgb(9,44,85)" d="M459.159 521.714C459.235 512.816 457.886 505.651 467.466 502.425 477.639 503.029 667.299 587.916 684.438 596.774 688.792 599.17 699.302 603.898 702.153 605.751 692.54 608.488 685.365 611.09 676.068 614.568 607.473 584.128 528.237 547.882 459.159 521.714zM1254.42 590.214C1294.83 571.498 1335.35 553.02 1375.98 534.781 1398.43 524.543 1420.76 513.974 1443.43 504.24 1458.49 497.774 1460.33 509.865 1459.07 521.278 1390.57 550.731 1323.01 583.225 1255.11 612.589 1245.64 609.366 1237.13 606.286 1227.21 604.504L1227.37 603.571C1229.4 601.191 1250.07 592.216 1254.42 590.214zM819.368 664.28C868.108 682.833 939.263 718.373 963.926 765.737 918.352 727.028 884.175 709.719 828.723 687.287 826.011 685.983 823.278 685.31 820.391 684.461 820.245 677.627 820.244 671.066 819.368 664.28zM1117.02 662.354C1117.3 664.08 1115.85 678.574 1115.63 681.154 1058.39 706.198 1023.33 725.244 975.276 764.937 975.458 761.852 981.099 752.816 983.355 750.142 1018.73 708.211 1067.65 683.389 1117.02 662.354z" data-c-fill="092c55"/><path fill="rgb(247,188,174)" d="M 961.518 631.492 C 970.051 631.415 992.049 629.016 996.761 636.855 C 996.477 643.957 986.354 650.809 981.996 656.128 C 979.479 659.201 976.919 663.487 974.822 666.916 C 972.811 668.874 973.01 668.849 970.31 669.52 C 967.763 668.379 961.461 659.112 958.828 655.871 C 954.087 650.034 941.351 642.808 944.174 635.153 C 949.67 631.127 954.64 631.748 961.518 631.492 z" data-c-fill="f7bcae"/><path fill="rgb(189,208,224)" d="M 820.391 684.461 C 823.278 685.31 826.011 685.983 828.723 687.287 C 827.369 690.259 827.921 690.274 827.807 693.138 C 827.305 705.679 825.334 720.356 816.259 729.762 C 812.126 734.391 800.66 741.48 799.047 743.441 C 795.394 742.247 786.011 737.694 782.081 735.912 C 808.072 723.708 814.828 711.576 820.391 684.461 z" data-c-fill="bdd0e0"/><path fill="rgb(156,187,216)" d="M753.701 735.182C758.113 724.277 759.917 718.852 759.705 706.359 759.564 698.094 756.707 687.479 755.377 679.052 755.787 678.51 756.197 677.969 756.607 677.427 759.243 677.735 760.422 678.359 762.117 680.639 774.633 697.47 770.474 720.46 760.82 736.796 758.814 735.315 756.595 735.551 753.701 735.182zM1174.93 737.765C1167.84 726.037 1162.66 718.016 1164.39 703.235 1165.05 697.588 1168.99 677.119 1176.49 678.547 1180.29 684.183 1173.33 700.527 1173.99 708.826 1174.75 718.441 1176.73 724.959 1179.38 734.155 1177.91 735.25 1176.08 736.415 1174.93 737.765zM689.784 737.886C682.805 729.739 679.421 724.03 677.586 712.922 676.304 705.161 678.515 679.591 688.969 679.099 692.085 684.532 686.06 703.171 687.036 710.99 688.148 719.905 690.63 725.812 693.807 734.123L689.784 737.886zM1240.19 735.193C1245.64 722.814 1245.75 722.084 1247.4 708.956 1248.54 699.897 1242.65 681.894 1245.69 678.43 1251.05 679.218 1254.67 688.865 1255.7 693.555 1259.43 710.714 1255.81 723.703 1244.78 736.962 1243.74 736.245 1241.5 735.634 1240.19 735.193z" data-c-fill="9cbbd8"/></svg>