<svg xmlns="http://www.w3.org/2000/svg" viewBox="0 0 2048 2048" preserveAspectRatio="xMidYMid meet">
  <g transform="translate(-1453 -553) scale(2.35)">
    <path fill="rgb(15,52,106)" d="M 895.548 398.458 C 924.683 398.152 986.393 387.68 988.001 427.478 L 1096.07 447.693 C 1116.35 451.362 1151.24 456.216 1169.16 462.79 C 1177.68 465.95 1185.3 471.131 1191.36 477.888 C 1210.31 498.701 1206.18 556.172 1204.77 584.466 C 1211.2 580.613 1218.39 577.894 1225.62 576.025 C 1248.08 570.219 1273.79 571.122 1294.01 583.426 C 1306.57 591.071 1315.83 602.578 1319.25 617.007 C 1325.18 642.027 1314.75 665.469 1295.76 681.799 C 1284.14 691.796 1270.16 699.831 1262.77 713.817 C 1241.54 753.978 1292.99 818.21 1250.3 886.034 C 1235.01 910.341 1209.95 925.959 1182.26 932.16 C 1161.99 937.524 1128.01 937.376 1107.56 934.046 C 1106.65 935.228 1105.72 936.392 1104.77 937.538 C 1079.59 967.992 1034.5 951.498 1001.24 944.368 L 930.323 929.634 L 855.516 913.961 C 831.122 908.803 798.418 904.143 778.867 888.237 C 766.8 878.42 760.427 860.014 760.184 844.721 C 759.759 818.024 760.12 791.107 760.146 764.322 L 759.922 617.51 L 759.817 532.743 C 759.711 501.922 755.175 470.535 778.34 446.336 C 800.64 423.04 832.921 413.935 864.232 412.693 C 875.181 403.33 881.562 400.441 895.548 398.458 z"/>
    <path fill="rgb(253,253,254)" d="M 792.613 467.727 C 793.638 490.969 810.51 493.926 830.083 498.286 C 841.922 500.923 854.032 502.937 865.963 505.177 L 984.864 527.803 C 1006.52 531.89 1028.55 535.383 1049.84 541 C 1089.45 551.452 1083.77 595.204 1083.77 627.043 L 1083.77 706.306 L 1083.8 831.883 C 1083.8 854.622 1084.07 877.71 1083.39 900.427 C 1083.08 911.177 1079.78 915.023 1072.06 921.944 C 1062.61 926.233 1058.04 927.066 1047.6 925.232 C 1029.06 921.969 1010.67 918.072 992.25 914.104 C 933.148 901.376 873.652 890.102 814.799 876.28 C 809.362 875.003 803.426 872.86 798.791 869.724 C 791.857 865.081 787.156 857.773 785.807 849.538 C 784.753 843.392 785.242 811.466 785.23 803.006 L 785.093 696.955 L 784.651 562.434 C 784.46 536.55 783.647 509.315 785.093 483.54 C 785.45 477.183 789.005 472.769 792.613 467.727 z"/>
    <path fill="rgb(15,52,106)" d="M 945.785 668.129 C 958.26 668.492 965.243 678.799 965.63 690.179 C 966.179 706.291 968.661 722.959 950.491 729.221 C 926.784 724.108 929.321 695.429 934.812 676.957 C 936.235 672.173 941.332 669.623 945.785 668.129 z"/>
    <path fill="rgb(15,52,106)" d="M 877.098 661.092 C 896.772 659.011 900.485 675.203 900.354 691.186 C 900.259 702.66 900.886 713.287 890.414 720.413 C 879.746 722.673 875.392 718.929 869.261 711.237 C 868.172 700.578 867.261 685.94 868.484 675.286 C 869.402 667.29 871.085 665.517 877.098 661.092 z"/>
    <path fill="rgb(43,108,203)" d="M 1162.65 684.307 C 1177.89 567.591 1321.02 576.548 1293.35 646.51 C 1283.79 663.594 1263.46 673.926 1248.34 688.966 L 1247.8 689.509 C 1216.16 728.541 1237.59 757.27 1240.42 798.331 C 1243.34 809.194 1242.45 825.975 1240.36 837.221 C 1229.45 895.983 1176.38 913.218 1124.64 910.848 L 1111.06 909.216 L 1111.08 865.619 L 1123.93 863.97 C 1132.3 862.607 1140.39 859.892 1147.89 855.931 C 1221.08 817.407 1149.03 729.478 1162.65 684.307 z"/>
    <path fill="rgb(253,253,254)" d="M 1162.65 684.307 C 1177.89 567.591 1321.02 576.548 1293.35 646.51 C 1283.79 663.594 1263.46 673.926 1248.34 688.966 L 1247.8 689.509 C 1241.38 686.168 1238.85 684.919 1231.97 682.834 L 1228.97 682.173 C 1216.51 681.609 1208.66 683.668 1199.26 692.289 C 1197.95 693.499 1196.65 694.729 1195.38 695.977 L 1194.78 694.943 C 1189.31 685.382 1189.8 673.246 1182.62 669.953 C 1176.26 670.366 1166.81 679.56 1162.65 684.307 z"/>
    <path fill="rgb(225,234,249)" d="M 1231.97 682.834 C 1242.46 663.196 1268.67 634.887 1293.35 646.51 C 1283.79 663.594 1263.46 673.926 1248.34 688.966 L 1247.8 689.509 C 1241.38 686.168 1238.85 684.919 1231.97 682.834 z"/>
    <path fill="rgb(120,160,219)" d="M 1228.97 682.173 L 1231.97 682.834 C 1238.85 684.919 1241.38 686.168 1247.8 689.509 C 1216.16 728.541 1237.59 757.27 1240.42 798.331 L 1239.89 799.386 L 1239.27 799.072 C 1226.81 768.519 1219.95 738.955 1223.14 705.745 C 1223.9 697.887 1228.64 689.374 1228.97 682.173 z"/>
    <path fill="rgb(35,97,193)" d="M 1111.08 865.619 L 1123.93 863.97 C 1125.34 875.851 1124.93 898.803 1124.64 910.848 L 1111.06 909.216 L 1111.08 865.619 z"/>
    <path fill="rgb(225,234,249)" d="M 965.158 502.076 C 965.117 488.589 964.522 468.186 965.358 455.189 L 967.086 454.523 C 980.891 456.002 997.849 459.705 1011.76 462.36 L 1073.71 473.918 L 1124.73 483.564 C 1144.19 487.24 1168.04 487.468 1175.55 508.707 C 1179.36 531.295 1177.72 575.75 1177.84 600.654 C 1166.59 612.155 1161.97 616.835 1153.51 630.199 C 1151.84 633.8 1150.91 635.998 1148.57 639.293 C 1130.64 683.976 1135.27 712.856 1148.25 758.028 C 1154.47 778.225 1162.81 806.187 1147.87 824.597 C 1141.02 833.356 1135.12 836.571 1124.68 840.496 L 1121.39 841.425 C 1118.19 841.82 1115.71 842.546 1112.9 841.237 C 1108.63 835.921 1110.84 822.633 1111.11 814.767 C 1109.48 762.043 1111.67 706.16 1110.82 653.22 C 1110.39 626.05 1111.83 600.088 1109.39 572.779 C 1104.12 550.592 1096.8 538.902 1077.91 526.636 C 1073.44 525.103 1068.37 522.585 1063.92 521.506 C 1031.95 513.759 996.947 509.771 965.158 502.076 z"/>
    <path fill="rgb(253,253,254)" d="M 967.086 454.523 C 980.891 456.002 997.849 459.705 1011.76 462.36 L 1073.71 473.918 L 1124.73 483.564 C 1144.19 487.24 1168.04 487.468 1175.55 508.707 C 1171.72 511.071 1154.64 523.311 1152.29 523.763 L 1151.44 518.933 C 1150.87 525.876 1150.82 522.248 1146.76 528.908 L 1146.29 528.851 C 1139.74 531.162 1127.05 536.398 1121.17 537.87 C 1113.72 525.554 1105.14 520.355 1091.13 517.685 C 1049.71 509.793 1007.67 500.735 966.155 493.653 L 966.169 478.078 L 966.177 470.734 C 966.202 466.271 965.562 458.267 967.086 454.523 z"/>
    <path fill="rgb(253,253,254)" d="M 967.086 454.523 C 980.891 456.002 997.849 459.705 1011.76 462.36 L 1073.71 473.918 L 1124.73 483.564 C 1144.19 487.24 1168.04 487.468 1175.55 508.707 C 1171.72 511.071 1154.64 523.311 1152.29 523.763 L 1151.44 518.933 C 1150.84 512.994 1144.97 508.083 1140.36 505.031 C 1130.33 500.11 1069.25 490.028 1054 487.077 C 1027.73 481.994 992.442 474.363 966.177 470.734 C 966.202 466.271 965.562 458.267 967.086 454.523 z"/>
    <path fill="rgb(237,229,215)" d="M 966.177 470.734 C 992.442 474.363 1027.73 481.994 1054 487.077 C 1069.25 490.028 1130.33 500.11 1140.36 505.031 C 1141.03 509.372 1141.64 508.631 1139.9 511.559 L 1136.69 513.196 C 1125.55 507.95 1105.35 504.88 1092.73 502.541 C 1064.22 497.333 1035.74 491.934 1007.29 486.346 C 996.977 484.387 975.013 481.173 966.169 478.078 L 966.177 470.734 z"/>
    <path fill="rgb(208,207,208)" d="M 1136.69 513.196 L 1139.9 511.559 C 1141.64 508.631 1141.03 509.372 1140.36 505.031 C 1144.97 508.083 1150.84 512.994 1151.44 518.933 C 1150.87 525.876 1150.82 522.248 1146.76 528.908 L 1146.29 528.851 C 1146.08 521.743 1141.58 517.58 1136.69 513.196 z"/>
    <path fill="rgb(208,207,208)" d="M 965.158 502.076 C 965.117 488.589 964.522 468.186 965.358 455.189 L 967.086 454.523 C 965.562 458.267 966.202 466.271 966.177 470.734 L 966.169 478.078 L 966.155 493.653 C 1007.67 500.735 1049.71 509.793 1091.13 517.685 C 1105.14 520.355 1113.72 525.554 1121.17 537.87 C 1126.94 555.753 1125.1 587.842 1125.04 607.703 L 1124.86 689.884 L 1124.74 750.071 C 1124.82 762.053 1125.67 776.328 1124.87 788.02 C 1125.1 805.512 1125.04 823.006 1124.68 840.496 L 1121.39 841.425 C 1118.19 841.82 1115.71 842.546 1112.9 841.237 C 1108.63 835.921 1110.84 822.633 1111.11 814.767 C 1109.48 762.043 1111.67 706.16 1110.82 653.22 C 1110.39 626.05 1111.83 600.088 1109.39 572.779 C 1104.12 550.592 1096.8 538.902 1077.91 526.636 C 1073.44 525.103 1068.37 522.585 1063.92 521.506 C 1031.95 513.759 996.947 509.771 965.158 502.076 z"/>
    <path fill="rgb(166,181,209)" d="M 1121.89 769.746 C 1122.03 780.205 1123.67 834.929 1121.39 841.425 C 1118.19 841.82 1115.71 842.546 1112.9 841.237 C 1108.63 835.921 1110.84 822.633 1111.11 814.767 C 1111.9 814.62 1112.62 814.053 1113.39 813.594 C 1112.77 807.347 1114.1 790.012 1114.68 783.435 C 1114.71 783.002 1120.53 772.889 1121.54 770.566 L 1121.89 769.746 z"/>
    <path fill="rgb(253,253,254)" d="M 1077.91 526.636 C 1089.33 520.841 1104.43 532.845 1109.08 543.189 C 1111.84 549.325 1115.63 569.596 1109.39 572.779 C 1104.12 550.592 1096.8 538.902 1077.91 526.636 z"/>
    <path fill="rgb(120,160,219)" d="M 1121.89 769.746 C 1121.9 764.346 1121.79 738.619 1123.4 735.537 C 1125.49 748.686 1122.95 773.754 1124.87 788.02 C 1125.1 805.512 1125.04 823.006 1124.68 840.496 L 1121.39 841.425 C 1123.67 834.929 1122.03 780.205 1121.89 769.746 z"/>
    <path fill="rgb(225,234,249)" d="M 1175.55 508.707 C 1179.36 531.295 1177.72 575.75 1177.84 600.654 C 1166.59 612.155 1161.97 616.835 1153.51 630.199 C 1152.38 622.854 1153.14 608.991 1152.88 601.05 C 1152.12 576.958 1154.42 547.358 1152.29 523.763 C 1154.64 523.311 1171.72 511.071 1175.55 508.707 z"/>
    <path fill="rgb(166,181,209)" d="M 1151.44 518.933 L 1152.29 523.763 C 1154.42 547.358 1152.12 576.958 1152.88 601.05 C 1153.14 608.991 1152.38 622.854 1153.51 630.199 C 1151.84 633.8 1150.91 635.998 1148.57 639.293 C 1147.32 635.224 1147.16 630.946 1147.07 626.717 C 1146.43 594.123 1147.62 561.501 1146.76 528.908 C 1150.82 522.248 1150.87 525.876 1151.44 518.933 z"/>
    <path fill="rgb(166,181,209)" d="M 1148.25 758.028 C 1154.47 778.225 1162.81 806.187 1147.87 824.597 C 1146.29 812.723 1146.32 769.13 1148.25 758.028 z"/>
    <path fill="rgb(134,206,252)" d="M 893.299 421.832 C 906.979 419.553 944.837 419.997 958.829 421.886 C 956.762 424.594 954.086 427.919 952.233 430.679 C 947.552 440.99 949.416 485.146 949.36 499.676 C 928.615 495.079 902.954 491.218 881.627 487.356 C 881.581 473.617 878.925 439.759 885.069 429.525 C 888.04 426.392 889.803 424.402 893.299 421.832 z"/>
    <path fill="rgb(253,253,254)" d="M 893.299 421.832 C 906.979 419.553 944.837 419.997 958.829 421.886 C 956.762 424.594 954.086 427.919 952.233 430.679 C 946.29 428.963 895.953 429.819 885.069 429.525 C 888.04 426.392 889.803 424.402 893.299 421.832 z"/>
    <path fill="rgb(253,253,254)" d="M 864.424 484.828 C 852.999 481.001 817.374 479.634 815.344 466.368 C 820.061 451.836 851.426 448.798 864.656 448.052 C 865.308 453.382 865.62 479.912 864.424 484.828 z"/>
    <path fill="rgb(237,229,215)" d="M 864.656 448.052 C 865.308 453.382 865.62 479.912 864.424 484.828 L 863.549 475.551 C 858.561 473.458 846.696 472.909 844.955 466.62 C 847.512 464.691 859.709 466.743 864.102 467.165 C 864.083 460.379 864.059 454.859 864.656 448.052 z"/>
    <path fill="rgb(15,52,106)" d="M 1307.43 493.941 C 1315.05 493.699 1322.64 498.493 1319.69 506.843 C 1316.16 516.836 1300.23 532.302 1291.17 537.007 C 1258.2 534.981 1296.79 500.213 1307.43 493.941 z"/>
    <path fill="rgb(15,52,106)" d="M 1264.02 473.232 C 1265.24 473.414 1266.45 473.625 1267.66 473.866 C 1283.23 477.05 1271.9 505.016 1268.87 513.893 C 1266.92 519.578 1264.47 521.308 1259.64 524.164 C 1244.65 521.863 1247.63 506.834 1250.07 496.035 C 1252.23 486.448 1253.39 475.561 1264.02 473.232 z"/>
    <path fill="rgb(15,52,106)" d="M 1331.41 541.174 C 1339.46 540.277 1345.41 540.895 1347.89 550.3 C 1351.08 562.438 1327.94 565.659 1319.77 567.412 C 1311.33 569.401 1296.49 567.821 1302.25 555.214 C 1306.19 546.6 1322.38 543.433 1331.41 541.174 z"/>
  </g>
</svg>
